# xmcd
#
# Track frame offsets:
#	183
#	18243
#	47333
#	76203
#	108430
#	137083
#	159745
#
# Disc length: 2446 seconds
#
# Revision: 0
# Processed by: cddbd v1.5.2PL0 Copyright (c) Steve Scherf et al.
# Submitted via: EasyCDDAExtractor 4.6.9.1
#
DISCID=4b098c07
DTITLE=Lahka Muza - Tien bolesti
DYEAR=1992
DGENRE=Gothic Ritual Darkwave
TTITLE0=Pozeram na stenu
TTITLE1=Hniloba
TTITLE2=Sluzky
TTITLE3=Koniec ruzoveho vykriku
TTITLE4=Pad
TTITLE5=Tien bolesti
TTITLE6=Tryzen
EXTD=
EXTT0=
EXTT1=
EXTT2=
EXTT3=
EXTT4=
EXTT5=
EXTT6=
PLAYORDER=
